<?xml version="1.0" encoding="utf-8"?>
<!-- Generator: Adobe Illustrator 27.7.0, SVG Export Plug-In . SVG Version: 6.00 Build 0)  -->
<svg version="1.1" id="Capa_1" xmlns="http://www.w3.org/2000/svg" xmlns:xlink="http://www.w3.org/1999/xlink" x="100px" y="0px"
	 viewBox="0 0 110 26" style="enable-background:new 0 0 110 26;" xml:space="preserve">
<style type="text/css">
	.st0{fill:#FECB05;}
	.st1{fill:#FFFFFF;}
</style>
<path class="st0" d="M29.7,11.2l-4.6-1c-1.7-0.4-3.8-0.9-3.8-2.6c0-1.7,1.4-2.8,4-2.8c5.1,0,4.7,3.6,7.2,3.6c1.3,0,2.5-0.8,2.5-2.2
	c0-3.2-5.1-5.6-9.3-5.6c-4.7,0-9.6,2-9.6,7.4c0,2.6,0.9,5.3,5.9,6.6l6.2,1.6c1.9,0.5,2.3,1.5,2.3,2.5c0,1.6-1.6,3.2-4.4,3.2
	c-5.6,0-4.8-4.4-7.8-4.4c-1.3,0-2.3,0.9-2.3,2.3c0,2.6,3.1,6.1,10.1,6.1c6.6,0,9.9-3.2,9.9-7.6C36,15.3,34.8,12.3,29.7,11.2z"/>
<path class="st0" d="M56.6,1H40.8c-1.6,0-2.8,0.8-2.8,2.3c0,1.5,1.3,2.3,2.8,2.3H46v17.2c0,1.6,1.1,2.7,2.7,2.7
	c1.7,0,2.7-1.1,2.7-2.7V5.6h5.2c1.6,0,2.8-0.8,2.8-2.3C59.5,1.8,58.2,1,56.6,1z"/>
<path class="st0" d="M79,20.7H68.1v-5.8h9.3c1.4,0,2.6-0.4,2.6-2.1s-1.1-2.1-2.6-2.1h-9.3V5.4h10.6c1.6,0,2.8-0.5,2.8-2.2
	c0-1.7-1.2-2.2-2.8-2.2H65.8c-1.9,0-3.2,0.8-3.2,3.2v17.7c0,2.4,1.3,3.2,3.2,3.2H79c1.6,0,2.8-0.5,2.8-2.2
	C81.7,21.2,80.6,20.7,79,20.7z"/>
<path class="st0" d="M92.9,15.9c-0.1,0.1-0.3,0.1-0.4,0c0,0-0.1-0.1-0.1-0.1h0c0,0.1,0.1,0.1,0.1,0.2c0.2,0.2,0.7-0.1,0.8-0.1
	L92.9,15.9z"/>
<path class="st0" d="M104.6,22l-3.5-9.7v0l-0.3-0.7l-2-5.7l-0.1-0.2l-0.9-2.6c-0.6-1.7-1.9-2.9-3.7-2.9c-0.6,0-1.2,0.2-1.7,0.4
	c-0.9,0.5-1.6,1.4-2,2.4l-0.9,2.5L88,9.4l-4.5,12.2L83.4,22c-0.1,0.2-0.2,0.6-0.2,1.2c0,0.5,0.1,0.9,0.4,1.2
	c0.2,0.3,0.4,0.5,0.6,0.7c0.2,0.2,0.5,0.3,0.8,0.4c0.3,0.1,0.5,0.1,0.8,0.1c0.3,0,0.6,0,0.9-0.1c0.9-0.3,1.4-0.9,1.6-1.7l1-3.2h7.1
	l-0.4-1.3l-1.1-3.5l-0.2-0.5l-1.3,0.5c0,0,0,0,0,0c-0.1,0.1-0.6,0.3-0.8,0.1c-0.1,0-0.1-0.1-0.1-0.2c0,0,0,0,0,0c0,0,0,0,0,0
	c0,0,0,0,0,0c0,0,0,0,0,0c0,0,0,0,0,0c0,0,0,0,0,0v0c0,0,0,0,0,0c0,0,0,0,0-0.1c0-0.1,0-0.1,0-0.1c0,0,0,0,0,0v0l1.2-7.4v0l0.1-0.4
	c0-0.2,0.1-0.3,0.3-0.3c0.2,0,0.3,0,0.4,0.1l0.6,0.8l0.2,0.3l0.1,0.2l2.4,3.2l0.3,0.4l1.2,1.6c0.1,0.1,0.1,0.3,0,0.4
	c-0.1,0.1-0.2,0.2-0.4,0.2l-0.9,0.1l-0.3,0L97,14.5l0.6,1.9l0.3,0.8l0.5,1.6l0.3,0.9l0.1,0.2l0,0.1l0.1,0.4h0v0l1,3.3
	c0.3,0.8,0.8,1.4,1.6,1.7c0.3,0.1,0.6,0.1,0.9,0.1c0.3,0,0.5,0,0.8-0.1c0.9-0.3,1.6-1.1,1.6-2.2C104.9,23,104.8,22.5,104.6,22z
	 M94,5.8c0,0-0.1,0-0.1,0L94,5.6h0.1L94,5.8C94.1,5.8,94.1,5.8,94,5.8z"/>
<path class="st0" d="M92.3,15.3l0,0.1C92.3,15.4,92.3,15.3,92.3,15.3z"/>
<path class="st0" d="M92.3,15.6C92.3,15.6,92.3,15.6,92.3,15.6C92.3,15.6,92.3,15.6,92.3,15.6L92.3,15.6z"/>
<path class="st0" d="M92.3,15.7L92.3,15.7C92.3,15.7,92.3,15.7,92.3,15.7C92.3,15.7,92.3,15.7,92.3,15.7z"/>
<path class="st0" d="M94.1,5.8C94.1,5.8,94.1,5.8,94.1,5.8c-0.1,0-0.2,0.1-0.2,0.1L94,5.6h0.1L94.1,5.8z"/>
<path class="st1" d="M91.8,15.6C91.8,15.6,91.8,15.6,91.8,15.6C91.8,15.6,91.8,15.6,91.8,15.6C91.8,15.6,91.8,15.6,91.8,15.6
	C91.8,15.6,91.8,15.6,91.8,15.6z"/>
<path class="st1" d="M91.8,15.3l0,0.1C91.8,15.4,91.8,15.3,91.8,15.3C91.8,15.3,91.8,15.3,91.8,15.3z"/>
<path class="st0" d="M7.8,0.8C6.1,0.8,5,1.9,5,3.5L5,23c0,1.6,1.1,2.7,2.7,2.8c1.7,0,2.8-1.1,2.8-2.7l0.1-19.5
	C10.5,1.9,9.5,0.8,7.8,0.8z"/>
</svg>
