<?xml version="1.0" encoding="UTF-8"?>
<svg id="Capa_1" data-name="Capa 1" xmlns="http://www.w3.org/2000/svg" viewBox="0 0 1033.41 570.85">
  <defs>
    <style>
      .cls-1 {
        fill: #fff;
      }

      .cls-2 {
        fill: #fdca09;
        font-family: Swiss721BT-BlackExtended, 'Swis721 BlkEx BT';
        font-size: 126.34px;
        font-weight: 800;
      }

      .cls-3 {
        letter-spacing: -.02em;
      }

      .cls-4 {
        fill: #fdc905;
      }
    </style>
  </defs>
  <text class="cls-2" transform="translate(379.15 431.59) scale(.63 1)"><tspan x="0" y="0">UNP </tspan></text>
  <g id="g8">
    <path id="path10" class="cls-1" d="m720.48,24.9c26.38-11.16,47.67-14.35,70.36-20.03,6.43-1.43,16.64-2.77,23.24-4.87-1.02,3.96-2.18,11.37-4.09,15.84-4.33,10.92-16.75,20.84-25.44,28.06-20.97,13.69-41.39,28.19-64,39.45-8.89,5.09-13.82,12.41-21.44,18.46l-29.69,44.56-.89.51c-5.34,3.05-7.59,8.84-11.28,14.33l-58.06,54.61-32.8,27.21-.89.51c1.7,19.83,17.51,34.97,25.64,53.38,2.27,8.82,1.12,16.23-1.1,24.81-12.15,3.02-27.63-1.62-36.89-9.82-12.07-17.84-28.1-23.28-47.77-32.28-8.01,4.58-14.27,5.36-21.73,10.75l-3.73,2.7-2.5.87c-2.63,4.32-12.79,8.45-16.14,12.62-25.59,16.9-53.86,20.71-77.8,40.03l-17.07,10.33c-7.17,13.1-17.43,23.48-29.13,33.54l-67.41,52.65-16.46,2.11c4.05-18.63,7.68-41.52,16.05-59.24,7.44-20.01,33.86-54.81,41.82-62.19,11.45-14.99,24.2-26.23,40.76-34.58,7.83-3.92,19.95-9.73,28.5-13.5,30.66-13.05,50.26-21.46,64.91-51.78-7.13-10.54-7.84-22.51-5.49-34.54-.11-8.37-8.23-12.16-13.21-22.25-4.77-7.96-9.58-18.7-19.06-17.21l-10.03.68c10.05-12.5,17.13-19.37,32.44-14.07l3.43,1.41,2.71,1.26c3.43,1.41,5.79,4,9.22,5.41,15.27,2.51,28.94,5.37,35.73,17.23l4.86,1.72c12.4,1.9,21.48,10.76,31.96,17.14,10.56-14.48,25.45-13.45,41.5-19.82l12.07-8.6c8.57-15.59,31.51-42.78,42.62-56.45,5.43-9.3,9.84-14.63,15.48-21.8,9.37-9.86,29.45-23.04,39.95-28.49,15.71-5.05,30.87-10.92,50.81-20.65h0Z"/>
  </g>
  <g id="g12">
    <path id="path14" class="cls-4" d="m262.67,438.81c7-38.88,17.98-75.53,52.48-109.34,7.83-3.92-26.42,34.81-26.02,50.89l16.37-22.31-11.71,21.89,2.33-.21,14.55-24.08c-2.04,7.92-13.23,16.01-7.02,24.27l2.33-.21,11.34-23.36-4.18,22.08c8.95-14.12,6.43-27.87,11.96-43.4l.13-3.45c-.76-2.94,3.69-5.49,3.65-8.28l-3.25,24.36,2.12-2.34c2.42-6.45,8.82-10.67,8.54-18.38,1.85,4.56-2.21,8.58.19,13.95l3.6.75c4.58-6,4.84-12.9,8.16-19.85,3.8,2.88-.95,9.54,1.63,14.25,7.15-1.28,3.61-11.07,8.06-13.61.59,3.6.45,7.05,1.59,11.46l.89-.51c4.07-4.02,2.9-11.22,5.53-15.54.04,2.79.08,5.58,1.38,9.33l2.33-.21c3.73-2.7,1.67-9.39,6.11-11.94,1.27.96.25,4.92,2.78,6.84l1.74-3.81.47-4.77c3.05-.06,1.14,4.41,5.79,4,.51-1.98-1.51-5.88,1.15-7.41.38,1.47.59,3.6,3.29,4.86,3.05-.06.3-4.11.26-6.9l1.61-.36c.93,2.28,1.31,3.75,3.84,5.67,3.22-.72.64-5.43.06-9.03,2.33-.21,2.54,1.92,4.52,3.04,1.61-.36-.76-2.94,1.02-3.96,3.22-.72,1.48,3.09,4.86,1.72,1.57-3.15-1.85-4.56-1.17-7.2,3.6.75,2.91,3.39,5.62,4.66l1.78-1.02c-.04-2.79-1.85-4.56-2.06-6.69l-2.88-.6-14.95,8-.38-1.47,28.12-14.97,3.22-.72,2.12-2.34c4.49.24,11.05-4.64,12.59-10.58,1.44.3,2.71,1.26,3.8,2.88,1.4-2.49-2.2-3.24.09-6.24l2.54,1.92c1.4-2.49,3.9-3.36,4.75-6.66,1.61-.36,2.71,1.26,4.14,1.56l.89-.51c-.21-2.13-.76-2.94-1.68-5.22,1.44.3,2.71,1.26,4.52,3.04,1.23-1.83-.76-2.94-.97-5.07,1.61-.36,2.71,1.26,4.14,1.56,2.84-2.19-1.48-3.09-1.51-5.88,3.05-.06,2.91,3.39,6.51,4.15,1.4-2.49-3.63-3.54-.97-5.07.72.15,1.65,2.43,4.14,1.56.17-.66-3.63-3.54-1.14-4.41,1.82,1.77,2.03,3.9,2.78,6.84-.89.51-1.4,2.49-3.35,4.17l-3.6-.75-.89.51.76,2.94c1.27.96,3.43,1.41,5.79,4l.13-3.45c1.74-3.81,3.08,2.73,6.47,1.36l-1.14-4.41c1.78-1.02,3.97,2.22,6.47,1.36,3.29,4.86,10.77,14.08,18.47,13.61l.3-4.11,38.65,20.62c-1.51-5.88-9.08-8.86-10.43-15.4l36,36.76c.51-1.98-2.71-1.26-2.2-3.24,3.05-.06,3.63,3.54,6.34,4.81l.89-.51c.51-1.98-2.37-2.58-2.57-4.71l.89-.51c1.27.96,2.2,3.24,4.18,4.36-5.56-13.69-14.48-23.21-24.32-35.01,14.42,5.81,18.75,21.32,30.72,30.79l1.06-1.17c.34-1.32-2.54-1.92-3.29-4.86,1.78-1.02,2.2,3.24,4.86,1.72-.21-2.13-2.2-3.24-3.29-4.86,1.61-.36,2.88.6,4.14,1.56-9.33-13.78-20.69-31.47-29.2-51.34l-4.84-13.54,1.06-1.17c2.16.45,2.54,1.92,3.29,4.86,4.49.24,8.01-4.58,8.86-7.88-2.44-8.16-15.93-11.69-21.97-20.61,3.22-.72,6.38,7.6,12.3,8.14-.62-6.39-6.93-8.41-9.88-14.59l2.88.6c-2.16-.45.3-4.11,1.4-2.49l.13-3.45c-4.14-1.56-6.13-2.68-4.83,1.08-4.07,4.02-7.02-2.17-10.11-4.9,1.4-2.49,4.69,2.38,7.95,4.45l1.06-1.17c-.38-1.47-2.03-3.9-4.01-5.02,3.77.09,5.79,4,9.73,3.43.68-2.64-2.74-4.05-4.22-7.15,1.4-2.49,5.79,4,8.8,1.15-.04-2.79-3.63-3.54-5.11-6.64-6.06,2.9-12.59,10.58-21.21,8.77-.72-.15-2.71-1.26-4.18-4.36,7.68-15.08,27.02-16.59,42.9-22.31l.38,1.47c-12.45,7.13-26.04,9.84-40.78,19.97,1.48,3.09,3.8,2.88,8.46,2.47,3.56-2.04,7.8-6.71,12.79-8.45,2.71,1.26,4.73,5.17,7.95,4.45.68-2.64-1.48-3.09-1.68-5.22,3.05-.06,4.35,3.7,8.12,3.79-.21-2.13-2.2-3.24-3.84-5.67,2.16.45,4.35,3.7,7.23,4.3,1.57-3.15-2.91-3.39-2.78-6.84,2.67-1.53,3.08,2.73,6.3,2.02.68-2.64-3.8-2.88-3.29-4.86,2.33-.21,4.69,2.38,7.74,2.32.17-.66-1.65-2.43.13-3.45,1.27.96,2.54,1.92,2.57,4.71-.85,3.3-4.31-.9-3.9,3.36l-3.77-.09c.38,1.47-.13,3.45.97,5.07-1.23,1.83-2.71-1.26-5.03-1.06.76,2.94,5.79,4,7.61,5.77-1.48-3.09,3.56-2.04,2.59-7.11.72.15.21,2.13,2.2,3.24-1.06,1.17-3.56,2.04-1.91,4.47,1.99,1.11,2.57,4.71,6.34,4.81l1.23-1.83c.72.15,2.91,3.39,1.14,4.41l-3.6-.75c1.65,2.43-1.91,4.47-3.73,2.7.55.81.04,2.79,1.68,5.22-2.84,2.19-4.9-4.51-7.91-1.66,2.16.45.04,2.79,2.2,3.24-.68,2.64-2.88-.6-4.31-.9l-1.61.36-.68,2.64-5.75-1.21c-.34,1.32,1.48,3.09-.3,4.11l-3.6-.75,13.17,19.46,8.86-7.88-1.65-2.43c-.38-1.47-.59-3.6-2.4-5.37l1.61-.36c1.82,1.77,1.85,4.56,4.22,7.15l3.22-.72c1.02-3.96-4.73-5.17-5.15-9.43,2.71,1.26,3.46,4.2,7.27,7.09,2.33-.21,4.45-2.55,5.13-5.19-.93-2.28-4.35-3.7-4.94-7.3,2.54,1.92,4.94,7.3,7.44,6.43,4.41-5.34-4.73-5.17-4.47-12.07,2.71,1.26,4.22,7.15,9.42,7.54,3.73-2.7-4.01-5.02-6.25-11.05,3.6.75,7.23,4.3,8.88,6.73l16.86-12.46-1.27-.96,12.38-12.71c-3.8-2.88-12.64-6.82-10.69-8.5l12.64,6.82c3.39-1.38,3.69-5.49,5.26-8.64-3.08-2.73-5.79-4-10.31-7.03-2.2-3.24,7.23,4.3,11.54,5.2,4.49.24,7.29-4.73,12.45-7.13l.85-3.3,14.67-15.71c-3.26-2.07-20.55-8.48-14.8-7.28l15.14,5.96,1.23-1.83c-3.63-3.54-25.42-10.2-14.46-8.6,4.14,1.56,8.67,4.6,13.53,6.32,1.61-.36,2.33-.21,4.28-1.89l-.04-2.79c-5.58-1.87-26.44-6.24-16.75-5.6l19.42,4.07c1.44.3,3.56-2.04,5.51-3.71l-.55-.81-22.8-2.69c-8.46-2.47,14.72,1.7,23.32.71,5.17-2.39,6.7-8.33,10.05-12.5-2.88-.6-16.43,4.9-10.75.53,3.39-1.38,7.87-1.13,11.43-3.17l7.34-13.76-2.54-1.92c-1.27-.96,3.73-2.7.3-4.11-18.13,11.5-41.33,19.16-33.5,15.24l34.01-17.22c.89-.51,3.22-.72,4.28-1.89l-1.48-3.09c.51-1.98,3.05-.06,3.73-2.7l-.04-2.79,10.67-6.11c-.21-2.13-2.71-1.26-5.03-1.06l-.38-1.47c.89-.51,3.05-.06,5-1.74l-.76-2.94-.55-.81c.34-1.32,1.74-3.81,3.9-3.36,1.4-2.49-5.34,3.05-5.92-.55-12.83,5.66-42.77,18.86-35.86,12.65l39.04-16.16,5-1.74-2.54-1.92c5.17-2.39,9.75-8.39,15.46-9.98l-1.1-1.62c.68-2.64,5.17-2.39,8.55-3.77l1.02-3.96c-1.27-.96-4.49-.24-4.86-1.72,21.73-10.75,50.89-15.07,78.03-23.29-1.59,14.97-16.33,25.1-27.14,34.66l-50.28,33.28c-13.72,6.17-23.47,14.56-34.78,26.1l-28.8,44.05c-1.4,2.49-3.22.72-5.51,3.71l-7.55,11.63-58.06,54.61-31.91,26.7-2.67,1.53c1.31,30.19,35.6,47.11,26.12,75.04-8.21,2.45-18.45,1-26.61-5.58-12.07-17.84-31.91-26.17-53.56-36.27-8.35,5.9-20.87,7.45-29.73,15.33l-3.05.06c-2.08,5.13-9.41,7.07-13.47,11.09-25.04,17.71-57.42,22.74-80.47,41.56l-17.24,10.99c-7,12.44-16.88,24.29-29.13,33.54l-65.12,49.65-4.83,1.07h0Z"/>
  </g>
  <g id="g16">
    <path id="path18" class="cls-4" d="m319.18,375.53c.36-13.14,7.36-25.59,14.19-37.37.38,1.47.25,4.92,2.95,6.18l3.05-.06c4.07-4.02,6.49-10.46,7.68-15.08.04,2.79-1.87,7.26,1.93,10.14,3.05-.06,5.13-5.19,7.42-8.18-.17.66.04,2.79.25,4.92l1.99,1.11c1.23-1.83,5.13-5.19,5.09-7.98l4.86,1.72c3.9-3.36,4.2-7.47,6.11-11.94,1.44.3-.3,4.11,3.12,5.52l1.78-1.02c2.67-1.53,1.02-3.96,1.7-6.6l2.37,2.58c1.61-.36,3.56-2.04,3.35-4.17l2.37,2.58c4.14,1.56.64-5.43,5-1.74,3.05-.06,3.56-2.04,4.41-5.34l2.16.45c1.61-.36,1.4-2.49,1.74-3.81l3.6.75c1.06-1.17.68-2.64,1.91-4.47l4.14,1.56c1.61-.36,2.84-2.19,2.08-5.13.72.15,2.2,3.24,4.86,1.72l.85-3.3,5.03,1.06,1.23-1.83c1.4-2.49-1.14-4.41-1.17-7.2l-2.88-.6c.21,2.13,1.14,4.41,1.34,6.54-3.05.06-2.03-3.9-4.73-5.17l-2.33.21c-1.4,2.49-.3,4.11,1.34,6.54-2.88-.6-3.8-2.88-5.45-5.32l2.12-2.34c2.33-.21,5.92.55,7.66-3.26,4.31.9,4.01,5.02,8.71,7.39l4.49.24,1.02-3.96c.17-.66,1.61-.36,4.11-1.23l1.19-4.62,2.71,1.26c2.33-.21,4.28-1.89,3.35-4.17l14.7,13.52c-.51,1.98-2.63,4.32-4.41,5.34-3.97-2.22-4.09-10.6-9.84-11.8,2.2,3.24,8.4,11.5,3.44,16.03-2.57-4.71-2.65-10.29-8.99-15.1l-.89.51c1.85,4.56,9.84,11.8,4.54,17.65-.72-.15-2.33.21-4.11,1.23-3.63-3.54-4.43-9.28-7.34-12.67-1.53,5.94,4.43,9.28,5.39,14.35-3.05.06-5,1.74-8.93,2.3l-7.51-12.01,4.13,13.39-3.39,1.38-7.68-11.35,2.86,12.42-1.61.36-6.08-11.71c-1.57,3.15,2.78,6.84,3.75,11.92-1.06,1.17-2.12,2.34-5.34,3.05-1.48-3.09-.45-7.05-3.71-9.13-1.02,3.96,3.33,7.65,1.42,12.12-1.44-.3-3.39,1.38-4.49-.24-.21-2.13-.79-5.73-2.78-6.84-.68,2.64,1.51,5.88,2.1,9.48l-2.67,1.53c-2.54-1.92-.79-5.73-2.27-8.82l-1.61.36c-.3,4.11,3.37,10.45-2.14,14.16l-.89.51c-.25-4.92,1.84-10.05-.91-14.1l-3.71,17.31c-3.39,1.38-5.34,3.05-8.89,5.09l.53-13.8c-3.35,4.17-1.84,10.05-3.92,15.18-2.2-3.24,2.21-8.58-.36-13.29-3.9,3.36-2.52,12.69-4.77,18.48-3.22.72-4.62,3.21-8.72,4.43-1.14-4.41,1.32-8.07-.53-12.63l-1.48-3.09c-3.69,5.49.87,11.31-3.37,15.99-2.88-.6-1.23,1.83-3.9,3.36-4.39-6.49,3.2-15.33.42-22.17l-8.04,28.23c-3.84-5.67,1.59-14.97.79-20.7l-8.46,23.96c-.55-.81-.76-2.94-1.51-5.88-4.11,1.23-2.38,9.24-8.27,11.48-2.2-3.24.44-7.56,1.29-10.86-3.94.57-4.2,7.47-7.55,11.63l-3.01,2.85h0Z"/>
  </g>
  <g id="g20">
    <path id="path22" class="cls-4" d="m313.29,351.34l8.65-10.01c.25,4.92-7.34,13.76-8.65,10.01h0Z"/>
  </g>
  <g id="g24">
    <path id="path26" class="cls-4" d="m329.83,354.81c-.21-2.13,2.76-7.77,3.69-5.49-1.06,1.17,2.2,3.24-3.69,5.49Z"/>
  </g>
  <g id="g28">
    <path id="path30" class="cls-4" d="m312.33,346.27c-.21-2.13,6.62-13.92,5.26-8.64-1.23,1.83-2.63,4.32-3.31,6.96l-1.95,1.68h0Z"/>
  </g>
  <g id="g32">
    <path id="path34" class="cls-4" d="m366.49,347.89c-1.61.36-1.5-17.7,1.59-14.97l-1.59,14.97Z"/>
  </g>
  <g id="g36">
    <path id="path38" class="cls-4" d="m316.72,326.32c31.26-47.7,112.04-40.51,135.79-100.22-8.19-9.37-8.21-23.98-7.65-34.99.02-11.82-12.59-15.86-13.63-26.51,2.5-.87,10.01,11.14,14.74,16.31.72.15.62,6.39,2.78,6.84l4.41-5.34c1.44.3,3.08,2.73,1.85,4.56l-6.4,4.22c-6.6,28.53,17.28,44.67,36.58,66.8l12.17,11.59c2.82,9.63-31.19-26.02-42.68-40.25-21.46,56.72-109.06,61.31-136.34,99.41l-1.65-2.43h0Z"/>
  </g>
  <g id="g40">
    <path id="path42" class="cls-4" d="m384.34,328.67c-.21-2.13.85-3.3.81-6.09.21,2.13,2.23,6.03-.81,6.09Z"/>
  </g>
  <g id="g44">
    <path id="path46" class="cls-4" d="m443.74,307.04c-2.37-2.58-3.29-4.86-6.59-9.73,3.97,2.22,5.45,5.32,6.59,9.73Z"/>
  </g>
  <g id="g48">
    <path id="path50" class="cls-4" d="m397.4,286.89c1.61-.36,12.28-6.47,19.23-9.88,1.74-3.81-27.44,12.33-19.23,9.88Z"/>
  </g>
  <g id="g52">
    <path id="path54" class="cls-4" d="m431.71,292c-2.71-1.26-2.2-3.24-5.45-5.32l.51-1.98,3.05-.06c2.71,1.26,2.2,3.24,3.67,6.33.17-.66-1.78,1.02-1.78,1.02Z"/>
  </g>
  <g id="g56">
    <path id="path58" class="cls-4" d="m465.64,295.63c-3.46-4.2-5.87-9.58-12.55-13.07l1.02-3.96c.72.15,2.2,3.24,4.14,1.56l1.02-3.96,11.83,12.91-2.84,2.19-9.97-8.35-2.71-1.26,11.11,12.76-1.06,1.17Z"/>
  </g>
  <g id="g60">
    <path id="path62" class="cls-4" d="m438.27,287.11c-.55-.81-2.71-1.26-4.35-3.7l.68-2.64c3.22-.72,3.73-2.7,7.29-4.73,1.82,1.77,2.91,3.39,3.5,6.99l-.89.51c-2.16-.45-2.91-3.39-5.96-3.34-1.95,1.68.42,4.26-.26,6.9.17-.66,0,0,0,0Z"/>
  </g>
  <g id="g64">
    <path id="path66" class="cls-4" d="m474.88,289.22l-12-12.25c.34-1.32,1.02-3.96.26-6.9l13.82,14.03c.38,1.47.04,2.79-2.08,5.13.89-.51,0,0,0,0Z"/>
  </g>
  <g id="g68">
    <path id="path70" class="cls-4" d="m421.11,277.25c-.42-4.26,5.51-3.71,7.42-8.18l2.71,1.26,1.61-.36c-1.65-2.43,1.91-4.47,3.73-2.7.68-2.64,1.4-2.49,4.24-4.68l.3-4.11,3.26,2.07c1.4-2.49-2.2-3.24,2.97-5.64.17-.66-.38-1.47-1.31-3.75.89-.51,2.71,1.26,4.49.24l-1.1-1.62c.51-1.98,2.33-.21,4.49.24.17-.66-2.78-6.84,1.74-3.81-.21-2.13,1.02-3.96.81-6.09.38,1.47,2.54,1.92,2.57,4.71.04,2.79-3.9,3.36-2.76,7.77-4.69-2.38-.34,1.32-3.73,2.7l-2.88-.6c.04,2.79-2.63,4.32-2.04,7.92-.85,3.3-2.71-1.26-4.66.42-1.5,8.73-13.17,6.98-21.86,14.2h0Z"/>
  </g>
  <g id="g72">
    <path id="path74" class="cls-4" d="m448.57,279.53l-2.71-1.26c-.72-.15-.21-2.13-2.03-3.9l1.06-1.17c2.71,1.26,3.8,2.88,5.28,5.98l-1.61.36h0Z"/>
  </g>
  <g id="g76">
    <path id="path78" class="cls-4" d="m479.29,283.88l-12.17-11.59,1.02-3.96,2.71,1.26c2.84-2.19,6.81.04,9.44-4.28l13.61,11.9-.51,1.98c-3.77-.09-8.01,4.58-14.1,4.7h0Z"/>
  </g>
  <g id="g80">
    <path id="path82" class="cls-4" d="m455.17,277.44c-2.71-1.26-3.63-3.54-6.17-5.47l.51-1.98,3.56-2.04c2.37,2.58,4.28-1.89,3.9-3.36l3.6.75-.04-2.79c2.16.45,3.29,4.86,4.39,6.49-1.78,1.02-4.9-4.51-7.19-1.51.93,2.28,2.03,3.9,2.78,6.84-2.67,1.53-2.91-3.39-6.3-2.02-.34,1.32,3.26,2.07.97,5.07Z"/>
  </g>
  <g id="g84">
    <path id="path86" class="cls-4" d="m487.8,277.32c3.05-.06-9.46-10.33-8.71-7.39l8.71,7.39Z"/>
  </g>
  <g id="g88">
    <path id="path90" class="cls-4" d="m514.09,272.4c-9.73-3.43,8.21-2.45,9.69.64,1.82,1.77-5.2-.4-9.69-.64.72.15,0,0,0,0Z"/>
  </g>
  <g id="g92">
    <path id="path94" class="cls-4" d="m506.48,266.63c-6.43,1.43,5.85-5.03,7.32-1.94l.55.81c-1.4,2.49-3.94.57-7.87,1.13h0Z"/>
  </g>
  <g id="g96">
    <path id="path98" class="cls-4" d="m499.8,263.14c.89-.51,3.73-2.7,7.32-1.94,2.91,3.39-2.67,1.53-4.28,1.89l-3.05.06Z"/>
  </g>
  <g id="g100">
    <path id="path102" class="cls-4" d="m547.59,230.73l-24.83-33.03c-1.76-10.8,30.72,30.79,25.55,33.18l-.72-.15h0Z"/>
  </g>
  <g id="g104">
    <path id="path106" class="cls-4" d="m570.07,222.92c-3.05.06-1.85-4.56-3.5-6.99l.85-3.3c.21,2.13,5.19,12.22,2.65,10.29h0Z"/>
  </g>
  <g id="g108">
    <path id="path110" class="cls-4" d="m554.13,211.23c-2.88-.6-5.58-1.87-6.17-5.47l1.78-1.02c2.54,1.92,3.08,2.73,4.39,6.49h0Z"/>
  </g>
  <g id="g112">
    <path id="path114" class="cls-4" d="m558.03,207.87c-1.27-.96-4.69-2.38-7.23-4.3l3.39-1.38c3.6.75,2.91,3.39,3.84,5.67h0Z"/>
  </g>
  <g id="g116">
    <path id="path118" class="cls-4" d="m579.4,210.27c-1.99-1.11-2.54-1.92-4.35-3.7l2.33-.21c.72.15-.13,3.45,2.03,3.9Z"/>
  </g>
  <g id="g120">
    <path id="path122" class="cls-4" d="m564.47,206.44l-9.97-8.35c5.2.4,7.06,4.96,9.97,8.35h0Z"/>
  </g>
  <g id="g124">
    <path id="path126" class="cls-4" d="m568.54,202.42c-2.54-1.92-5.79-4-9.05-6.07,1.27.96,3.05-.06,3.56-2.04,2.37,2.58,3.29,4.86,5.49,8.11h0Z"/>
  </g>
  <g id="g128">
    <path id="path130" class="cls-4" d="m517.65,191.06c9.82-2.81-42.35-29.75-35.22-19.21,12.43,4.69,24.87,9.39,35.22,19.21Z"/>
  </g>
  <g id="g132">
    <path id="path134" class="cls-4" d="m571.88,198.26c-2.71-1.26-6.68-3.49-7.1-7.75,3.43,1.41,5.45,5.32,7.1,7.75h0Z"/>
  </g>
  <g id="g136">
    <path id="path138" class="cls-4" d="m430.86,163.12c-7.17-13.33-17.11-18.89-26.89-13.29,3.31-6.96,17.58-12.31,26.04-9.84,9.73,3.43,9.05,6.07,13.36,6.98,13.49,3.52,29.83,4.86,36.32,20.83-2.88-.6-2.2-3.24-5.45-5.32l-2.84,2.19c-5.03-1.06-2.71-1.26,1.4-2.49-7.61-5.77-20.59-11.27-30.11-12.57l-1.53,5.94-2.46,3.66c-2.33.21-3.01,2.85-7.12,4.07l-.72-.15Z"/>
  </g>
  <g id="g140">
    <path id="path142" class="cls-4" d="m600.58,198.71c-2.71-1.26-5.62-4.66-7.61-5.77l-2.2-3.24c1.27.96,7.4,3.64,7.61,5.77l2.2,3.24Z"/>
  </g>
  <g id="g144">
    <path id="path146" class="cls-4" d="m459.2,164.89c.17-.66-.76-2.94.3-4.11l.89-.51,1.27.96c.38,1.47-.68,2.64-1.74,3.81l-.72-.15Z"/>
  </g>
  <g id="g148">
    <path id="path150" class="cls-4" d="m452.9,162.88c-1.27-.96-3.97-2.22-4.35-3.7l.51-1.98c2.5-.87,3.94-.57,6.81.04,1.99,1.11,1.31,3.75.62,6.39.17-.66-3.6-.75-3.6-.75Z"/>
  </g>
  <g id="g152">
    <path id="path154" class="cls-4" d="m585.06,191.28c-2.91-3.39-7.95-4.45-11.03-7.18,3.77.09,7.57,2.98,11.71,4.54l1.06-1.17c-.76-2.94-2.2-3.24-5.28-5.98l-3.05.06c.13-3.45-2.2-3.24-3.5-6.99,4.69,2.38,9.97,8.35,17.34,9.2.47-4.77-4.18-4.36-6.04-8.92,4.14,1.56,6.68,3.49,8.19,9.37-1.4,2.49-2.16-.45-4.83,1.08-.89.51,1.14,4.41-2.63,4.32l-1.95,1.68h0Z"/>
  </g>
  <g id="g156">
    <path id="path158" class="cls-4" d="m573.27,181.16l-1.27-.96c1.02-3.96,4.86,1.72,1.27.96Z"/>
  </g>
  <g id="g160">
    <path id="path162" class="cls-4" d="m609.43,190.83c-1.99-1.11-8.5-5.26-9.97-8.35,2.16.45,9.22,5.41,9.97,8.35Z"/>
  </g>
  <g id="g164">
    <path id="path166" class="cls-4" d="m581.65,178.04l.68-2.64c-1.99-1.11-1.65-2.43-3.63-3.54,2.33-.21,4.31.9,6.64.7.34-1.32-2.54-1.92-3.63-3.54,2.33-.21,4.31.9,6.64.7,1.4-2.49-1.65-2.43-1.85-4.56l2.16.45c3.29,4.86,5.49,8.11,9.33,13.78l-10.31-7.03-.51,1.98c-1.06,1.17-1.82-1.77-4.49-.24,1.27.96.04,2.79,1.85,4.56l-2.88-.6h0Z"/>
  </g>
  <g id="g168">
    <path id="path170" class="cls-4" d="m613.84,185.49c-.55-.81-8.63-1.81-8.88-6.73,1.61-.36,8.5,5.26,8.88,6.73Z"/>
  </g>
  <g id="g172">
    <path id="path174" class="cls-4" d="m599.89,174.91c-.04-2.79-1.68-5.22-5.49-8.11l-.42-4.26c-.38-1.47-3.08-2.73-4.35-3.7,3.22-.72,5.96,3.34,6.55,6.94,2.71,1.26,5.07,3.85,8.12,3.79l.51-1.98-8.71-7.39,1.78-1.02c.34-1.32-1.65-2.43-1.85-4.56.55.81,3.6.75,5.58,1.87l1.23-1.83c-.55-.81-2.37-2.58-4.35-3.7,2.67-1.53,4.14,1.56,7.36.85l.34-1.32c-1.27-.96-3.26-2.07-3.46-4.2,2.16.45,3.43,1.41,6.47,1.36,1.23-1.83.13-3.45-1.85-4.56,1.4-2.49,5.58,1.87,6.43-1.43-1.44-.3-.21-2.13-2.91-3.39l4.49.24,1.06-1.17c.51-1.98-2.71-1.26-2.03-3.9,1.27.96,4.49.24,4.66-.42l-1.31-3.75,4.49.24.34-1.32c-1.27-.96-3.26-2.07-3.63-3.54l2.88.6c2.67-1.53.13-3.45-1.85-4.56,1.23-1.83,3.05-.06,4.66-.42l-2.2-3.24c1.27.96,5-1.74,2.12-2.34l1.61-.36c1.1,1.62-.3,4.11-.09,6.24l-2.88-.6-.51,1.98c3.08,2.73,8.29,3.13,12.4,1.9-.55-.81-2.54-1.92-3.63-3.54.51-1.98,3.6.75,5-1.74l-3.08-2.73c.89-.51,2.88.6,5.2.4,2.2,3.24-.68,2.64-1.91,4.47,3.63,3.54-3.35,4.17-1.67,9.39l-3.94.57.04,2.79c-2.33.21-5,1.74-6.98.62.55.81.76,2.94,1.85,4.56l-4.49-.24c-.51,1.98,3.08,2.73,2.57,4.71-.17.66-3.56,2.04-5,1.74l1.31,3.75-3.22.72c-.34,1.32.04,2.79.97,5.07l-3.56,2.04-.13,3.45c-.89.51-3.05.06-5.2-.4,4.18,4.36,13.87,5,18.6,10.16l-16.41-6.92-2.12,2.34-4.14-1.56c-1.06,1.17.59,3.6.62,6.39,2.54,1.92,6.13,2.68,9.05,6.07l-16.24-7.58c1.82,1.77,2.02,3.9,1.34,6.54h0Z"/>
  </g>
  <g id="g176">
    <path id="path178" class="cls-4" d="m606.38,164.45c-1.44-.3-4.14-1.56-7.4-3.64l-.04-2.79c3.39-1.38,6.85,2.83,10.11,4.9l-2.67,1.53Z"/>
  </g>
  <g id="g180">
    <path id="path182" class="cls-4" d="m576.48,154.01c.62,6.39,48.11-48.35,40.23-47.22-.55-.81-43.62,48.59-40.23,47.22Z"/>
  </g>
  <g id="g184">
    <path id="path186" class="cls-4" d="m633.05,161c6.13,2.68-10.9-10.63-11.03-7.18l11.03,7.18Z"/>
  </g>
  <g id="g188">
    <path id="path190" class="cls-4" d="m613.43,154.79c-2.88-.6-4.35-3.7-7.61-5.77,3.77.09,8.63,1.81,9.77,6.22.17-.66-2.16-.45-2.16-.45Z"/>
  </g>
  <g id="g192">
    <path id="path194" class="cls-4" d="m640.54,158.39c-3.43-1.41-14.8-7.28-11.2-6.52,3.43,1.41,9.01,3.28,11.2,6.52Z"/>
  </g>
  <g id="g196">
    <path id="path198" class="cls-4" d="m612.97,147.74c-.55-.81-3.26-2.07-4.18-4.36,3.05-.06,7.19,1.51,8.5,5.26l-4.31-.9Z"/>
  </g>
  <g id="g200">
    <path id="path202" class="cls-4" d="m640.64,152.15c-1.99-1.11-4.69-2.38-7.23-4.3,2.88.6,6.47,1.36,7.23,4.3Z"/>
  </g>
  <g id="g204">
    <path id="path206" class="cls-4" d="m614.33,142.46l-.76-2.94c3.05-.06,7.91,1.66,7.95,4.45-1.78,1.02-4.31-.9-7.19-1.51Z"/>
  </g>
  <g id="g208">
    <path id="path210" class="cls-4" d="m644.33,146.67c-2.71-1.26-5.96-3.34-9.94-5.56-4.9-4.51,13.7,5.66,9.94,5.56Z"/>
  </g>
  <g id="g212">
    <path id="path214" class="cls-4" d="m618.74,137.13l-.55-.81.89-.51c1.44.3,4.49.24,4.86,1.72l-5.2-.4Z"/>
  </g>
  <g id="g216">
    <path id="path218" class="cls-4" d="m651.28,143.25c2.2,3.24-8.67-4.6-13.36-6.98-3.12-5.52,9.39,4.75,13.36,6.98h0Z"/>
  </g>
  <g id="g220">
    <path id="path222" class="cls-4" d="m622.81,133.11l-.55-.81.89-.51c2.33-.21,4.49.24,7.02,2.17-1.78,1.02-2.88-.6-5.2-.4l-2.16-.45h0Z"/>
  </g>
  <g id="g224">
    <path id="path226" class="cls-4" d="m625.61,128.13l-2.54-1.92c3.05-.06,8.42-.32,9.73,3.43-1.44-.3-4.31-.9-7.19-1.51Z"/>
  </g>
  <g id="g228">
    <path id="path230" class="cls-4" d="m634.19,112.54c.89-.51,4.28-1.89,7.49-2.6l1.4-2.49-2.88-.6c2.33-.21,3.56-2.04,6.6-2.09.85-3.3-2.54-1.92-5.24-3.19,1.4-2.49,5-1.74,8.21-2.45-.04-2.79-4.31-.9-7.02-2.17,1.57-3.15,6.98-.62,9.27-3.62l-.38-1.47c-2.16-.45-3.6-.75-6.64-.7,1.23-1.83,6.98-.62,8.38-3.11-2.16-.45-4.49-.24-5.58-1.87.17-.66,2.5-.87,4.28-1.89l-2.37-2.58c.68-2.64,5.51-3.71,6.74-5.54l-5.92-.55c2.12-2.34,5.34-3.05,8.72-4.43.55.81,3.22-.72,3.43,1.41-3.39,1.38-2.42,6.45-7.42,8.18l.04,2.79q-.89.51-2.12,2.34c1.99,1.11,3.05-.06,3.97,2.22,6.98-.62,12.11-5.81,20.16-7.6,3.56-2.04,15.29-9.32,12.11-5.81l-37.02,20.06c-1.02,3.96-.17.66,2.2,3.24l30.49-12.39c8.8,1.15-32.85,9.81-39.82,25.04-2.33.21-8.21,2.45-11.09,1.85Z"/>
  </g>
  <g id="g232">
    <path id="path234" class="cls-4" d="m645.69,114.95c-.72-.15,29.41.6,29.41.6,2.12-2.34-35.54-3.28-29.41-.6Z"/>
  </g>
  <g id="g236">
    <path id="path238" class="cls-4" d="m621.81,98.81c-2.38,9.24,15.01-17.03,14.8-19.16,3.1-9.09-14.12,16.52-14.8,19.16Z"/>
  </g>
  <g id="g240">
    <path id="path242" class="cls-4" d="m662.76,104.62l21.21-8.77c-4.75,6.66-12.28,6.47-21.21,8.77h0Z"/>
  </g>
  <g id="g244">
    <path id="path246" class="cls-4" d="m659.41,82.35c.21,2.13,34.22-15.09,37.77-17.12-.21-2.13-38.49,16.97-37.77,17.12Z"/>
  </g>
  <g id="g248">
    <path id="path250" class="cls-4" d="m639.96,75.49c-13.25,1.4,49.39-32.77,73.49-40.94l2.71,1.26-76.19,39.68Z"/>
  </g>
  <g id="g252">
    <path id="path254" class="cls-4" d="m689.33,54.54c-7.15,1.28,9.07-5.75,14.27-5.36-2.84,2.19-9.1,2.96-14.27,5.36h0Z"/>
  </g>
  <text class="cls-2" transform="translate(5.48 536.22) scale(.63 1)"><tspan x="0" y="0">SAN J</tspan><tspan class="cls-3" x="531.63" y="0">U</tspan><tspan x="657.17" y="0">AN BOSCO</tspan></text>
</svg>